<svg width="119" height="31" viewBox="0 0 119 31" fill="none" xmlns="http://www.w3.org/2000/svg">
<g clip-path="url(#clip0_51_44)">
<path d="M38.1138 24.2874L39.5953 20.7724C41.1963 21.9929 43.323 22.6276 45.4258 22.6276C46.979 22.6276 47.9587 22.0173 47.9587 21.0898C47.9349 18.5024 38.6634 20.5283 38.5917 14.0354C38.5678 10.7402 41.4353 8.20157 45.4975 8.20157C47.911 8.20157 50.3244 8.8118 52.0449 10.2031L50.6589 13.7913C49.0818 12.7661 47.1224 12.0339 45.2585 12.0339C43.9921 12.0339 43.1557 12.6441 43.1557 13.4252C43.1796 15.9638 52.5228 14.5724 52.6184 20.7724C52.6184 24.1409 49.8226 26.5087 45.8081 26.5087C42.869 26.5087 40.1688 25.8008 38.1138 24.2874ZM94.9613 19.5031C94.2206 20.8213 92.8346 21.7244 91.2336 21.7244C88.868 21.7244 86.9563 19.7716 86.9563 17.3551C86.9563 14.9386 88.868 12.9858 91.2336 12.9858C92.8346 12.9858 94.2206 13.889 94.9613 15.2071L99.0475 12.8882C97.5182 10.1055 94.579 8.20157 91.2336 8.20157C86.2873 8.20157 82.2728 12.3024 82.2728 17.3551C82.2728 22.4079 86.2873 26.5087 91.2336 26.5087C94.6029 26.5087 97.5182 24.6291 99.0475 21.822L94.9613 19.5031ZM54.6734 0.610229H59.7871V26.1669H54.6734V0.610229ZM101.055 0.610229V26.1669H106.168V18.5024L112.238 26.1669H118.785L111.067 17.0622L118.212 8.56771H111.951L106.168 15.622V0.610229H101.055ZM74.9846 19.552C74.2439 20.7968 72.7146 21.7244 70.9941 21.7244C68.6284 21.7244 66.7168 19.7716 66.7168 17.3551C66.7168 14.9386 68.6284 12.9858 70.9941 12.9858C72.7146 12.9858 74.2439 13.9622 74.9846 15.2315V19.552ZM74.9846 8.56771V10.6425C74.1483 9.20235 72.0694 8.20157 69.8949 8.20157C65.4025 8.20157 61.866 12.2535 61.866 17.3307C61.866 22.4079 65.4025 26.5087 69.8949 26.5087C72.0694 26.5087 74.1483 25.5079 74.9846 24.0677V26.1425H80.0983V8.56771H74.9846Z" fill="#BCC3DC"/>
<path d="M6.49984 19.3804C6.49984 21.1623 5.09 22.6025 3.34562 22.6025C1.60125 22.6025 0.191406 21.1623 0.191406 19.3804C0.191406 17.5985 1.60125 16.1584 3.34562 16.1584H6.49984V19.3804ZM8.07695 19.3804C8.07695 17.5985 9.48679 16.1584 11.2312 16.1584C12.9755 16.1584 14.3854 17.5985 14.3854 19.3804V27.4356C14.3854 29.2174 12.9755 30.6576 11.2312 30.6576C9.48679 30.6576 8.07695 29.2174 8.07695 27.4356V19.3804Z" fill="#BCC3DC"/>
<path d="M11.2311 6.44379C9.48676 6.44379 8.07692 5.00363 8.07692 3.22174C8.07692 1.43985 9.48676 -0.000305176 11.2311 -0.000305176C12.9755 -0.000305176 14.3854 1.43985 14.3854 3.22174V6.44379H11.2311ZM11.2311 8.07922C12.9755 8.07922 14.3854 9.51938 14.3854 11.3013C14.3854 13.0832 12.9755 14.5233 11.2311 14.5233H3.3217C1.57732 14.5233 0.16748 13.0832 0.16748 11.3013C0.16748 9.51938 1.57732 8.07922 3.3217 8.07922H11.2311Z" fill="#BCC3DC"/>
<path d="M23.8719 11.4481C23.8719 9.66617 25.2817 8.22601 27.0261 8.22601C28.7705 8.22601 30.1803 9.66617 30.1803 11.4481C30.1803 13.2299 28.7705 14.6701 27.0261 14.6701H23.8719V11.4481ZM22.2948 11.4481C22.2948 13.2299 20.8849 14.6701 19.1405 14.6701C17.3962 14.6701 15.9863 13.2299 15.9863 11.4481V3.36853C15.9863 1.58664 17.3962 0.146484 19.1405 0.146484C20.8849 0.146484 22.2948 1.58664 22.2948 3.36853V11.4481Z" fill="#BCC3DC"/>
<path d="M19.1405 24.2135C20.8849 24.2135 22.2948 25.6537 22.2948 27.4356C22.2948 29.2174 20.8849 30.6576 19.1405 30.6576C17.3962 30.6576 15.9863 29.2174 15.9863 27.4356V24.2135H19.1405ZM19.1405 22.6025C17.3962 22.6025 15.9863 21.1623 15.9863 19.3804C15.9863 17.5985 17.3962 16.1584 19.1405 16.1584H27.05C28.7944 16.1584 30.2042 17.5985 30.2042 19.3804C30.2042 21.1623 28.7944 22.6025 27.05 22.6025H19.1405Z" fill="#BCC3DC"/>
</g>
<defs>
<clipPath id="clip0_51_44">
<rect width="119" height="31" fill="white"/>
</clipPath>
</defs>
</svg>
